<?xml version="1.0" encoding="UTF-8"?>
<svg version="1.1" xmlns="http://www.w3.org/2000/svg" width="1024" height="1024">
<path d="M0 0 C0.69673828 0.20592773 1.39347656 0.41185547 2.11132812 0.62402344 C6.01268063 1.78823042 9.89120162 3.01358724 13.76171875 4.27539062 C16.30548955 5.09889758 18.85604932 5.89975858 21.40625 6.703125 C35.62676561 11.24654544 49.32621648 16.67218531 62.98876953 22.68017578 C65.74399283 23.8877919 68.50832994 25.0705441 71.27734375 26.24609375 C83.46218793 31.48715733 94.88892288 37.815604 106.35107422 44.47363281 C109.47549568 46.27399069 112.62842381 48.01802877 115.78735352 49.75683594 C121.43623274 52.87580723 126.89194264 56.12280287 132.11328125 59.92578125 C135.35307046 62.25369474 138.65165588 64.48296447 141.95703125 66.71630859 C148.67760543 71.26508432 155.31639303 75.81334733 161.5703125 80.99609375 C163.98022981 82.98369436 166.43538476 84.8974367 168.90673828 86.80737305 C187.08553323 100.89631298 203.72823482 116.65292255 220 132.875 C220.495 133.36732117 220.99 133.85964233 221.5 134.36688232 C227.22143607 140.06478023 232.76098579 145.85304214 238 152 C239.06834865 153.21527091 240.13864953 154.42882851 241.2109375 155.640625 C247.03333305 162.26657817 252.62657373 168.93987899 257.8359375 176.0625 C260.0997324 179.13537684 262.45121922 182.12654821 264.8125 185.125 C283.12297312 208.69162225 298.6414825 235.35938126 312 262 C312.71663818 263.41780762 312.71663818 263.41780762 313.44775391 264.86425781 C321.18778339 280.34431678 327.51800786 296.18584409 333.4375 312.4375 C333.77243469 313.35232147 334.10736938 314.26714294 334.45245361 315.20968628 C340.70067956 332.35085923 345.94298522 349.73675843 350.125 367.5 C350.37306396 368.55002197 350.62112793 369.60004395 350.87670898 370.68188477 C353.22044636 380.74070959 355.29377088 390.81351002 357 401 C357.20512207 402.22299805 357.41024414 403.44599609 357.62158203 404.70605469 C369.00933995 473.52317129 366.20983276 544.3852981 349 612 C348.62004883 613.53696533 348.62004883 613.53696533 348.23242188 615.10498047 C341.12602956 643.74872842 331.1582929 671.13855475 319 698 C318.60071289 698.88961426 318.20142578 699.77922852 317.79003906 700.69580078 C299.14446157 742.02170996 274.06909349 780.49073451 244.52783203 814.82592773 C242.52778888 817.1558404 240.70672599 819.43991102 239 822 C238.34 822 237.68 822 237 822 C236.75636719 822.56074219 236.51273438 823.12148438 236.26171875 823.69921875 C230.81173661 833.63742148 220.28299946 841.81764382 212.3125 849.8125 C211.81585846 850.31182037 211.31921692 850.81114075 210.80752563 851.32559204 C205.05199769 857.10458533 199.21720437 862.71706821 193 868 C191.77342706 869.0688081 190.54815747 870.13911385 189.32421875 871.2109375 C161.62986668 895.33606219 132.10722349 916.1735168 100 934 C98.98341309 934.56630127 98.98341309 934.56630127 97.94628906 935.14404297 C69.58409619 950.86062512 39.71005235 962.62032256 8.86590576 972.40692139 C7.15425964 972.95096854 5.44446521 973.50083242 3.73486328 974.05126953 C-49.32322983 991.00726292 -106.57140803 996.3229396 -162 993 C-163.48814209 992.92289795 -163.48814209 992.92289795 -165.00634766 992.84423828 C-193.86546875 991.30041587 -223.06626797 986.29005424 -251 979 C-252.7022876 978.56349121 -252.7022876 978.56349121 -254.43896484 978.11816406 C-282.30092886 970.92134679 -308.87888385 961.61261727 -334.91699219 949.43652344 C-337.5315561 948.21827082 -340.15468294 947.02609014 -342.7890625 945.8515625 C-354.96348932 940.3742747 -366.47509716 933.71662996 -378 927 C-378.89750977 926.47825195 -379.79501953 925.95650391 -380.71972656 925.41894531 C-395.81589057 916.60771489 -410.21372319 907.11367628 -423.9765625 896.3359375 C-426.83372695 894.12846419 -429.74202266 892.02491111 -432.6875 889.9375 C-437.2432458 886.65419839 -441.36897415 883.06825898 -445.4921875 879.26171875 C-447.96733809 877.02945677 -450.51703693 874.94969301 -453.125 872.875 C-465.16341708 863.083307 -476.08396486 852.00731567 -487.0625 841.0625 C-487.55536499 840.57231384 -488.04822998 840.08212769 -488.55603027 839.5770874 C-494.25760826 833.89906572 -499.79638778 828.14145788 -505 822 C-505.92415269 820.93200908 -506.84861508 819.86428603 -507.7734375 818.796875 C-513.33824796 812.30302148 -518.63936527 805.68055869 -523.69238281 798.77587891 C-525.17556703 796.76156188 -526.67717938 794.76166089 -528.1796875 792.76171875 C-554.37750249 757.75719944 -576.74673625 719.55005364 -592.9375 678.875 C-593.37280029 677.7833252 -593.80810059 676.69165039 -594.2565918 675.56689453 C-597.73553964 666.78321392 -600.96311443 657.9445049 -604 649 C-604.39316406 647.90558594 -604.78632812 646.81117188 -605.19140625 645.68359375 C-613.48199307 622.07047024 -618.65830003 597.59414189 -623 573 C-623.20109375 571.88753906 -623.4021875 570.77507813 -623.609375 569.62890625 C-630.11077479 533.38799525 -631.07090121 496.21615026 -629.1875 459.5 C-629.14365173 458.63181641 -629.09980347 457.76363281 -629.05462646 456.86914062 C-628.29809544 442.16274321 -627.11662884 427.58068085 -625 413 C-624.78754639 411.51886719 -624.78754639 411.51886719 -624.57080078 410.0078125 C-617.87103688 364.40499963 -604.3489572 319.78601065 -585 278 C-584.30849854 276.49155518 -584.30849854 276.49155518 -583.60302734 274.95263672 C-577.73932769 262.21158221 -571.38900848 249.78169101 -564.625 237.5 C-564.28820221 236.88684937 -563.95140442 236.27369873 -563.60440063 235.64196777 C-559.69122347 228.53928729 -555.58412143 221.68657343 -551 215 C-549.90966288 213.27524105 -548.82509625 211.54680001 -547.75 209.8125 C-540.76710021 198.79982104 -532.88196637 188.37814849 -525 178 C-524.22011719 176.96230469 -523.44023438 175.92460937 -522.63671875 174.85546875 C-516.81848023 167.15702421 -510.66823437 159.79291288 -504.32617188 152.52148438 C-503.16586204 151.19028944 -502.01206744 149.85342133 -500.859375 148.515625 C-497.69814235 144.85959071 -494.42381471 141.41501547 -491 138 C-489.60878354 136.60071312 -488.21759047 135.20140276 -486.82707214 133.80142212 C-484.68032851 131.64109936 -482.53074655 129.48360912 -480.38110352 127.32617188 C-479.25649806 126.1965408 -478.13279218 125.0660134 -477.01000977 123.93457031 C-471.36865517 118.25101107 -465.7513505 112.60858711 -459.65258789 107.40966797 C-457.32782143 105.42662741 -455.10952544 103.33364109 -452.875 101.25 C-447.09976052 95.99111618 -441.05061723 91.16132769 -434.84912109 86.41650391 C-433.02454612 85.01880335 -431.20961697 83.60920833 -429.39453125 82.19921875 C-411.52496557 68.44183726 -392.47133869 56.34439994 -373 45 C-371.73688824 44.25536254 -370.4738611 43.51058153 -369.2109375 42.765625 C-354.75282822 34.30043114 -339.73062979 27.42630244 -324.29248047 20.96044922 C-322.40208798 20.16845731 -320.51503378 19.3685022 -318.62890625 18.56640625 C-315.76176094 17.35353618 -312.88509792 16.16953458 -310 15 C-309.36094727 14.74009277 -308.72189453 14.48018555 -308.06347656 14.21240234 C-268.04256779 -1.97862921 -224.86633565 -11.48382237 -182 -16 C-180.53240234 -16.15879639 -180.53240234 -16.15879639 -179.03515625 -16.32080078 C-119.68355014 -22.47238808 -57.2162857 -16.97805702 0 0 Z " fill="#010201" transform="translate(645,25)"/>
<path d="M0 0 C1.67821205 0.00187239 3.35642465 0.00329239 5.03463745 0.00428772 C9.38439529 0.00804842 13.73411803 0.01782096 18.0838623 0.0289917 C22.54939296 0.03934709 27.01492947 0.04381514 31.48046875 0.04882812 C40.19272417 0.05945123 48.90495143 0.07644678 57.6171875 0.09765625 C58.98068929 15.46606205 59.93068509 30.66660824 59.6171875 46.09765625 C58.31128662 46.11223877 57.00538574 46.12682129 55.65991211 46.1418457 C9.46059132 46.69179672 -36.98230352 47.51190851 -82.9453125 52.53515625 C-83.84483643 52.63244019 -84.74436035 52.72972412 -85.67114258 52.82995605 C-97.29557222 54.11357908 -108.75729797 55.96899549 -120.24511719 58.15405273 C-124.71713826 58.99694241 -129.20189467 59.69940047 -133.70278931 60.36888123 C-155.94723758 63.69283186 -180.24150045 69.96747181 -200.3828125 80.09765625 C-201.11161621 80.4632666 -201.84041992 80.82887695 -202.59130859 81.20556641 C-224.39877509 92.34876671 -243.87200639 107.26091955 -252.7265625 130.9140625 C-258.19829489 149.12060062 -254.19053446 169.90440498 -245.58569336 186.41992188 C-232.31952212 210.79541032 -213.58362472 229.70654016 -189.3828125 243.09765625 C-188.609375 243.525625 -187.8359375 243.95359375 -187.0390625 244.39453125 C-168.42078753 254.18726029 -146.40960049 258.96594809 -125.6953125 253.47265625 C-114.78752308 249.74138621 -106.51627412 244.21749398 -98.3828125 236.09765625 C-97.36767578 235.09992188 -97.36767578 235.09992188 -96.33203125 234.08203125 C-87.25113725 224.54618264 -80.17663171 212.30964825 -75.3828125 200.09765625 C-74.98835937 199.11539063 -74.59390625 198.133125 -74.1875 197.12109375 C-69.98754589 186.05329016 -67.14613477 174.59331493 -64.3828125 163.09765625 C-64.18800293 162.29150879 -63.99319336 161.48536133 -63.79248047 160.65478516 C-60.68530372 147.45703078 -59.17832468 134.06632577 -57.68896484 120.61010742 C-57.60884659 119.88787994 -57.52872833 119.16565247 -57.44618225 118.42153931 C-57.22776661 116.43768969 -57.0137686 114.45335514 -56.80004883 112.46899414 C-56.3828125 109.09765625 -56.3828125 109.09765625 -55.86206055 106.51025391 C-55.31569654 103.75978568 -55.08481944 101.07019655 -54.8828125 98.2734375 C-54.8003125 97.16162109 -54.7178125 96.04980469 -54.6328125 94.90429688 C-54.5503125 93.75123047 -54.4678125 92.59816406 -54.3828125 91.41015625 C-53.81643491 83.62688924 -53.21139637 75.85791715 -52.3828125 68.09765625 C-37.01972131 66.86309282 -21.79902995 65.80969337 -6.3828125 66.09765625 C-6.20663426 77.17917458 -6.68191718 88.06412617 -7.6953125 99.09765625 C-7.79759659 100.23917145 -7.79759659 100.23917145 -7.90194702 101.40374756 C-13.19764051 160.42784738 -22.73545011 223.90942499 -64.3828125 269.09765625 C-65.08019531 269.8659375 -65.77757812 270.63421875 -66.49609375 271.42578125 C-84.07100352 289.91036544 -110.10063423 301.40782732 -135.47412109 302.19335938 C-138.65263155 302.23098074 -141.82911553 302.23425733 -145.0078125 302.22265625 C-146.07515625 302.22652344 -147.1425 302.23039062 -148.2421875 302.234375 C-157.03297191 302.22357551 -164.95086699 301.69999341 -173.3828125 299.09765625 C-174.87084771 298.71784069 -176.36057516 298.34461873 -177.8515625 297.9765625 C-204.30023523 291.19065066 -227.67818986 278.00034658 -247.3828125 259.09765625 C-248.71153398 257.96721297 -250.04478495 256.84206906 -251.3828125 255.72265625 C-278.52211053 231.89435258 -299.07311742 195.25518529 -302.3828125 159.09765625 C-304.2343503 129.60185414 -296.49932794 103.37700607 -277.2265625 80.54296875 C-274.99005427 78.01508444 -272.70449006 75.54745314 -270.3828125 73.09765625 C-269.61195313 72.27394531 -268.84109375 71.45023438 -268.046875 70.6015625 C-228.08778256 29.15531937 -165.09353101 16.1068578 -110.3828125 8.09765625 C-109.31740234 7.93958496 -108.25199219 7.78151367 -107.15429688 7.61865234 C-87.55081811 4.79109973 -67.71473894 3.53418372 -47.98046875 1.96484375 C-47.08092468 1.892052 -46.18138062 1.81926025 -45.25457764 1.7442627 C-30.15773202 0.56230325 -15.14167205 -0.05083661 0 0 Z " fill="#FBFBFA" transform="translate(475.3828125,551.90234375)"/>
<path d="M0 0 C1.23792108 0.57369449 2.47620052 1.14661635 3.71484375 1.71875 C18.7129181 8.88395382 31.40639707 18.68039654 43.62109375 29.84375 C45.77510509 31.79615436 47.97027726 33.68277359 50.1875 35.5625 C54.19658981 39.07742764 57.61111661 42.89049199 61 47 C61.43860352 47.52094238 61.87720703 48.04188477 62.32910156 48.57861328 C84.02294411 74.40081583 98.73955153 105.47241741 98.5 139.6875 C98.49790527 140.38110626 98.49581055 141.07471252 98.49365234 141.78933716 C98.30517914 172.22383275 86.0052147 196.40308911 65 218 C64.45923828 218.56267578 63.91847656 219.12535156 63.36132812 219.70507812 C59.40466236 223.75922054 55.2889255 227.36319195 50.75 230.75 C50.06744141 231.25950195 49.38488281 231.76900391 48.68164062 232.29394531 C40.5311094 238.24331864 31.85131912 243.1812248 23 248 C22.33564941 248.37108887 21.67129883 248.74217773 20.98681641 249.12451172 C9.90348464 255.28696919 -1.76642039 259.19113294 -13.83764648 262.98193359 C-16.05963467 263.69726524 -18.27210219 264.4425247 -20.47680664 265.20947266 C-29.97104927 268.50225177 -39.48553692 270.92050573 -49.3125 273 C-50.10392395 273.1698642 -50.8953479 273.33972839 -51.71075439 273.51473999 C-67.48163006 276.88483224 -83.32380181 279.38856264 -99.30615234 281.50488281 C-102.58981014 281.94501883 -105.86720358 282.41383514 -109.14453125 282.8984375 C-125.02937585 285.20042888 -140.98057256 286.20100943 -157 287 C-157.88576721 287.04489563 -158.77153442 287.08979126 -159.68414307 287.13604736 C-193.80047032 288.85239232 -227.84442573 289.26930938 -262 289 C-262.81391083 283.20704035 -263.19606229 277.53304762 -263.31640625 271.6875 C-263.3475779 270.40601074 -263.3475779 270.40601074 -263.37937927 269.09863281 C-263.44418599 266.39916158 -263.50343565 263.69960235 -263.5625 261 C-263.60575092 259.15754339 -263.64936718 257.31509531 -263.69335938 255.47265625 C-263.79979557 250.98185846 -263.90125193 246.49097316 -264 242 C-262.84657356 241.98786972 -262.84657356 241.98786972 -261.66984558 241.97549438 C-206.80278377 241.49267001 -206.80278377 241.49267001 -152 239 C-151.26994751 238.9525061 -150.53989502 238.90501221 -149.78771973 238.8560791 C-88.94974721 234.83516884 -7.86381017 228.54111093 36.3359375 181.03125 C48.2975408 166.43023188 52.55794919 148.69539028 51 130 C45.66448257 98.62972883 24.29230555 72.09273111 -1 54 C-21.57658334 39.73145427 -43.62328216 31.62397754 -68.90625 34.30859375 C-71.32314677 34.75195306 -73.6382892 35.32246002 -76 36 C-77.42699219 36.38478516 -77.42699219 36.38478516 -78.8828125 36.77734375 C-96.53629486 42.0372688 -109.22917606 54.085214 -118.07519531 69.92529297 C-120.54490347 74.54202811 -122.79401352 79.25290997 -125 84 C-125.52335938 85.09570312 -126.04671875 86.19140625 -126.5859375 87.3203125 C-135.53168383 106.96308882 -139.67581305 127.79354541 -143 149 C-143.1745874 150.11270264 -143.3491748 151.22540527 -143.52905273 152.37182617 C-147.07039669 175.18101985 -149.21764659 197.9975162 -151 221 C-161.26868368 221.9213891 -171.51034393 222.29520907 -181.8125 222.5625 C-183.39128408 222.60582772 -184.97006023 222.64944576 -186.54882812 222.69335938 C-190.36580244 222.79890974 -194.18286163 222.90056705 -198 223 C-198.26984799 213.00524577 -197.29580169 203.12879207 -196.375 193.1875 C-196.24544922 191.7772908 -196.24544922 191.7772908 -196.11328125 190.33859253 C-194.31472025 171.05639762 -191.44232048 152.04963912 -188 133 C-187.81969238 131.96391602 -187.63938477 130.92783203 -187.45361328 129.86035156 C-179.66268271 85.17125742 -162.49843253 34.93027132 -124.3515625 7.26171875 C-87.2121841 -18.24804534 -40.36061474 -19.58185316 0 0 Z " fill="#FBFBFA" transform="translate(753,184)"/>
<path d="M0 0 C1.60294922 0.40025391 1.60294922 0.40025391 3.23828125 0.80859375 C17.97305164 4.85660759 30.40772529 12.21949803 42 22 C42.85980469 22.70769531 43.71960938 23.41539062 44.60546875 24.14453125 C89.18981228 62.34955695 104.36440501 130.54768433 111.60546875 185.99951172 C112.0578844 189.44022235 112.52947528 192.87812648 113 196.31640625 C115.1890307 212.51462792 116.98311924 228.68169369 118 245 C118.09065191 246.34736405 118.18182023 247.69469343 118.2734375 249.04199219 C120.67706695 284.98599558 120.20402543 320.99760773 120 357 C115.85617068 357.62931688 111.78137222 358.14063428 107.59375 358.31640625 C106.60117187 358.35830078 105.60859375 358.40019531 104.5859375 358.44335938 C103.56757813 358.48267578 102.54921875 358.52199219 101.5 358.5625 C100.51257813 358.60568359 99.52515625 358.64886719 98.5078125 358.69335938 C90.33469384 359.02427613 82.17834217 359.04426422 74 359 C73.99413376 358.29892624 73.98826752 357.59785248 73.98222351 356.87553406 C73.35682833 264.80540195 73.35682833 264.80540195 61.51806641 173.65625 C60.95002106 170.74374608 60.41854432 167.82557453 59.88671875 164.90625 C52.64375321 126.01774362 40.51519321 79.67378745 7.5 54.375 C-8.71047007 43.73917122 -27.1178861 42.44743733 -46 46 C-78.52411857 55.74072587 -106.16600081 80.90463838 -122.25 110.3125 C-132.94949466 130.66633559 -137.97221871 153.51066295 -131 176 C-127.85059738 183.8830502 -123.60110807 190.64511962 -118 197 C-117.36707031 197.72703125 -116.73414063 198.4540625 -116.08203125 199.203125 C-83.35700275 234.32266779 -26.35045185 239.36397904 18.5 244.25 C19.2624704 244.33317474 20.0249408 244.41634949 20.81051636 244.50204468 C30.20618375 245.51439861 39.57851908 246.27570783 49.01757812 246.74511719 C52 247 52 247 53 248 C53.25131371 250.65275588 53.43135562 253.27771971 53.5625 255.9375 C53.6049585 256.75839111 53.64741699 257.57928223 53.69116211 258.42504883 C54.21788923 269.94203806 54.08771406 281.47437246 54 293 C41.76110345 293.27049657 29.79657378 292.46446498 17.625 291.25 C16.24420258 291.11511673 16.24420258 291.11511673 14.83551025 290.97750854 C-40.46142826 285.55291874 -108.96033816 275.74233902 -149 233 C-149.78761719 232.22140625 -150.57523438 231.4428125 -151.38671875 230.640625 C-171.01406829 210.80790708 -181.58003038 185.7847852 -181.51333618 157.83209229 C-181.50893524 157.06250183 -181.5045343 156.29291138 -181.5 155.5 C-181.49890228 154.70930115 -181.49780457 153.91860229 -181.49667358 153.10394287 C-181.44514471 140.14843993 -180.09837795 128.35368212 -176 116 C-175.6390625 114.77796875 -175.278125 113.5559375 -174.90625 112.296875 C-167.2948324 88.48401136 -151.93131435 67.02942373 -135 49 C-134.50258301 48.46858398 -134.00516602 47.93716797 -133.49267578 47.38964844 C-114.83446005 27.61927885 -91.80842191 12.07830482 -65.75 3.8671875 C-64.0928174 3.34461003 -62.44328677 2.79520906 -60.8125 2.1953125 C-41.61847521 -4.85703752 -19.64927692 -5.32119926 0 0 Z " fill="#FBFBFA" transform="translate(352,176)"/>
<path d="M0 0 C0.01030746 0.81780441 0.02061493 1.63560883 0.03123474 2.47819519 C0.13029778 10.28597946 0.23293913 18.09370548 0.33933926 25.90139294 C0.39388643 29.91283723 0.44717586 33.92428901 0.49731445 37.93579102 C0.76819743 59.51257144 1.11989679 81.04835199 2.9375 102.5625 C3.06717163 104.13487427 3.06717163 104.13487427 3.19946289 105.73901367 C3.94073104 114.58651607 4.78376489 123.42070969 5.71582031 132.25 C6.03001124 135.29041801 6.32359957 138.33252569 6.6171875 141.375 C10.03432176 176.0118652 14.53847482 213.55142001 28 246 C28.45761719 247.15886719 28.91523437 248.31773437 29.38671875 249.51171875 C35.43231593 264.30272774 42.70762066 277.76965683 53 290 C53.7528125 290.91652344 54.505625 291.83304688 55.28125 292.77734375 C64.54183498 303.61940187 77.94677898 312.87193469 92.53295898 314.23706055 C123.06402761 315.69699929 147.93547162 304.0397643 170.47314453 283.66845703 C191.18398417 264.56269061 206.97646516 238.02845999 208.3203125 209.42578125 C208.87388138 190.0205599 205.11380192 174.54127511 191.55834961 159.97314453 C181.0638203 149.22095469 168.83676043 141.73920456 155 136 C153.33130859 135.26523437 153.33130859 135.26523437 151.62890625 134.515625 C140.72989038 129.88384169 129.47123141 126.87270674 118 124 C117.08766602 123.76893555 116.17533203 123.53787109 115.23535156 123.29980469 C101.24942557 119.79956757 87.32265091 117.56543221 73 116 C72.27959534 115.92094421 71.55919067 115.84188843 70.81695557 115.76043701 C46.93315411 113.12398008 46.93315411 113.12398008 23 111 C22.08576819 106.1774272 21.73345095 101.45200037 21.5 96.5625 C21.30491647 92.49825976 21.07815745 88.51989177 20.47265625 84.4921875 C19.92934653 80.47798183 19.88941864 76.60503319 19.9375 72.5625 C19.94201172 71.83095703 19.94652344 71.09941406 19.95117188 70.34570312 C19.96281852 68.56376581 19.98074809 66.78187137 20 65 C88.52928412 65.97862821 170.12658901 74.95756168 222 124 C222.83402344 124.76957031 223.66804688 125.53914062 224.52734375 126.33203125 C245.08147981 145.93605316 255.61489231 173.5803562 256.40478516 201.6809082 C256.87381068 245.68180242 235.55728437 282.95555666 206 314 C205.07960938 314.98226562 205.07960938 314.98226562 204.140625 315.984375 C195.21004525 325.25516731 184.58503829 332.74898677 174 340 C173.21625 340.54398438 172.4325 341.08796875 171.625 341.6484375 C144.52354286 359.16759372 109.75918785 365.64995131 78.0769043 359.86206055 C58.04219383 355.43038881 41.95855151 344.50508901 27 331 C25.89205078 330.00033203 25.89205078 330.00033203 24.76171875 328.98046875 C-7.28333253 298.47666242 -21.50550317 253.38915413 -30.8125 211.5 C-31.03357925 210.51468292 -31.03357925 210.51468292 -31.25912476 209.50946045 C-33.18084273 200.875341 -34.58056457 192.29517186 -35.58300781 183.51660156 C-35.95194591 180.40525242 -36.40737467 177.33720044 -36.9375 174.25 C-39.68591467 158.12704032 -41.67178747 142.11738296 -42.88037109 125.80029297 C-43.12478171 122.50294491 -43.37983752 119.206554 -43.63671875 115.91015625 C-44.04890473 110.56382261 -44.43592554 105.21618456 -44.8031311 99.86657715 C-44.92431036 98.10210502 -45.04820217 96.33781369 -45.17660522 94.57385254 C-46.46393943 76.55166455 -46.11527449 58.45210061 -46.06866455 40.39599609 C-46.05829172 35.94368977 -46.05383751 31.49137752 -46.04882812 27.0390625 C-46.03821884 18.35935903 -46.02123361 9.67968397 -46 1 C-30.65673879 0.03022277 -15.37118107 -0.11787716 0 0 Z " fill="#FBFBFA" transform="translate(598,490)"/>
<path d="M0 0 C0.33 0.99 0.66 1.98 1 3 C0.52949219 3.39832031 0.05898437 3.79664063 -0.42578125 4.20703125 C-1.04839844 4.73683594 -1.67101562 5.26664063 -2.3125 5.8125 C-2.92738281 6.33457031 -3.54226562 6.85664063 -4.17578125 7.39453125 C-5.85570783 8.87301053 -7.42247301 10.4142137 -9 12 C-10.17537388 13.07589903 -11.36315103 14.13839345 -12.5625 15.1875 C-13.16191406 15.71730469 -13.76132813 16.24710938 -14.37890625 16.79296875 C-16 18 -16 18 -18 18 C-18 19.65 -18 21.3 -18 23 C-18.99 23.33 -19.98 23.66 -21 24 C-21.66 24.66 -22.32 25.32 -23 26 C-25.125 26.625 -25.125 26.625 -27 27 C-25.50725806 23.52676909 -23.51887739 21.26128022 -20.859375 18.59375 C-19.62380859 17.35431641 -19.62380859 17.35431641 -18.36328125 16.08984375 C-17.06970703 14.80787109 -17.06970703 14.80787109 -15.75 13.5 C-14.90308594 12.64535156 -14.05617187 11.79070312 -13.18359375 10.91015625 C-9.02410218 6.76360245 -5.07306302 2.98415472 0 0 Z " fill="#EEEEEC" transform="translate(237,207)"/>
<path d="M0 0 C0.06058594 0.60328125 0.12117188 1.2065625 0.18359375 1.828125 C0.26738281 2.62734375 0.35117187 3.4265625 0.4375 4.25 C0.55931641 5.43335938 0.55931641 5.43335938 0.68359375 6.640625 C0.93958438 8.9456606 0.93958438 8.9456606 1.5234375 10.91796875 C2.15087121 13.65913406 2.17009129 16.25273359 2.1875 19.0625 C2.20167969 20.10535156 2.21585937 21.14820313 2.23046875 22.22265625 C2 25 2 25 0 28 C-0.48080596 25.00025462 -0.95968682 22.00022231 -1.4375 19 C-1.57220703 18.16082031 -1.70691406 17.32164062 -1.84570312 16.45703125 C-2.66308805 11.31348706 -3.3834858 6.17153659 -4 1 C-1 0 -1 0 0 0 Z " fill="#EDEDEC" transform="translate(416,338)"/>
<path d="M0 0 C17.82 0 35.64 0 54 0 C54 0.33 54 0.66 54 1 C53.40753479 1.00808685 52.81506958 1.01617371 52.20465088 1.02450562 C46.0401863 1.1105396 39.8760437 1.21004284 33.71191406 1.31738281 C31.4111878 1.35567417 29.11040165 1.39052674 26.80957031 1.421875 C23.50303738 1.4675217 20.19691688 1.52551747 16.890625 1.5859375 C15.3466806 1.60326431 15.3466806 1.60326431 13.77154541 1.62094116 C12.33050446 1.6507457 12.33050446 1.6507457 10.86035156 1.68115234 C9.59460297 1.70113785 9.59460297 1.70113785 8.30328369 1.7215271 C5.73570357 2.03195412 4.1287385 2.52641564 2 4 C1.18129815 7.56206661 1.18129815 7.56206661 1 11 C0.67 11 0.34 11 0 11 C0 7.37 0 3.74 0 0 Z " fill="#D6D8D2" transform="translate(489,426)"/>
<path d="M0 0 C4.29 0.33 8.58 0.66 13 1 C13 2.66666667 13 4.33333333 13 6 C11.74316406 5.68289062 10.48632812 5.36578125 9.19140625 5.0390625 C3.7809898 3.83674773 -1.53671872 3.55957725 -7.0625 3.375 C-8.02349609 3.33632812 -8.98449219 3.29765625 -9.97460938 3.2578125 C-12.31622814 3.16461374 -14.65786037 3.07880815 -17 3 C-17 2.67 -17 2.34 -17 2 C-11.39 2 -5.78 2 0 2 C0 1.34 0 0.68 0 0 Z " fill="#E9EAE6" transform="translate(334,217)"/>
<path d="M0 0 C0.33 0.66 0.66 1.32 1 2 C1.99 2.33 2.98 2.66 4 3 C3.67 6.96 3.34 10.92 3 15 C1.35 15.33 -0.3 15.66 -2 16 C-1.34 10.72 -0.68 5.44 0 0 Z " fill="#E2E2E0" transform="translate(565,317)"/>
<path d="M0 0 C0.33 0.66 0.66 1.32 1 2 C0.0919838 3.13199353 -0.82683826 4.25532363 -1.75 5.375 C-2.26046875 6.00148437 -2.7709375 6.62796875 -3.296875 7.2734375 C-5.1040333 9.10546495 -6.71127965 9.87119424 -9 11 C-10.18641702 12.12537096 -11.33205842 13.29499209 -12.4375 14.5 C-15.10034462 17.26040574 -17.21591561 18.96797698 -21 20 C-16.71854677 14.7552198 -12.17557669 10.35106064 -7 6 C-5.6659073 4.85505088 -4.33252212 3.70927661 -3 2.5625 C-2.01 1.716875 -1.02 0.87125 0 0 Z " fill="#7B7B77" transform="translate(194,125)"/>
<path d="M0 0 C0.66 0.33 1.32 0.66 2 1 C1.01 1.33 0.02 1.66 -1 2 C-1 2.66 -1 3.32 -1 4 C-1.56589844 4.19335938 -2.13179688 4.38671875 -2.71484375 4.5859375 C-3.44832031 4.84632813 -4.18179687 5.10671875 -4.9375 5.375 C-6.03384766 5.75785156 -6.03384766 5.75785156 -7.15234375 6.1484375 C-9.18682116 6.85271413 -9.18682116 6.85271413 -10 9 C-10.99 9 -11.98 9 -13 9 C-13.33 9.66 -13.66 10.32 -14 11 C-15.32 10.67 -16.64 10.34 -18 10 C-14.56861368 7.20661013 -10.81217239 5.22264513 -6.875 3.25 C-5.92560547 2.75693359 -5.92560547 2.75693359 -4.95703125 2.25390625 C-3.33560094 1.43802731 -1.66987872 0.71147715 0 0 Z " fill="#1D1F1C" transform="translate(280,629)"/>
<path d="M0 0 C0 3.89089387 -0.65889836 6.55514551 -3.36328125 9.46875 C-4.9375 10.875 -4.9375 10.875 -8 13 C-8.99 12.67 -9.98 12.34 -11 12 C-9.54234835 10.37438849 -8.08385614 8.74953066 -6.625 7.125 C-5.81289063 6.22007812 -5.00078125 5.31515625 -4.1640625 4.3828125 C-2.80923795 2.89103817 -1.42494565 1.42494565 0 0 Z " fill="#E0E0DE" transform="translate(618,200)"/>
<path d="M0 0 C0.99 0.66 1.98 1.32 3 2 C-1.95 8.435 -1.95 8.435 -7 15 C-8 13 -8 13 -7.4375 10.875 C-5.43821105 6.87642209 -2.76209916 3.50039611 0 0 Z " fill="#646165" transform="translate(901,820)"/>
<path d="M0 0 C4.29 0 8.58 0 13 0 C13.33 0.99 13.66 1.98 14 3 C9.05 3 4.1 3 -1 3 C-0.67 2.01 -0.34 1.02 0 0 Z " fill="#E9E8E8" transform="translate(319,851)"/>
<path d="M0 0 C0.66 0.33 1.32 0.66 2 1 C0.58435393 2.89660274 -0.83248455 4.79229517 -2.25 6.6875 C-3.03890625 7.74324219 -3.8278125 8.79898438 -4.640625 9.88671875 C-6.71826483 12.62824018 -8.83680647 15.3257768 -11 18 C-11 16.68 -11 15.36 -11 14 C-10.34 14 -9.68 14 -9 14 C-8.7525 13.113125 -8.505 12.22625 -8.25 11.3125 C-6.95035375 7.86843744 -5.51270773 5.66975197 -3 3 C-2.34 3 -1.68 3 -1 3 C-0.67 2.01 -0.34 1.02 0 0 Z " fill="#191B19" transform="translate(198,630)"/>
<path d="M0 0 C2 2 2 2 2 5 C0.35 5 -1.3 5 -3 5 C-3.33 5.99 -3.66 6.98 -4 8 C-5.62890625 9.38671875 -5.62890625 9.38671875 -7.5625 10.6875 C-8.52349609 11.34298828 -8.52349609 11.34298828 -9.50390625 12.01171875 C-9.99761719 12.33785156 -10.49132812 12.66398438 -11 13 C-9.46356148 9.31930113 -7.21849055 7.01224796 -4.375 4.25 C-3.55773437 3.45078125 -2.74046875 2.6515625 -1.8984375 1.828125 C-0.95871094 0.92320312 -0.95871094 0.92320312 0 0 Z " fill="#E9EAE9" transform="translate(209,621)"/>
<path d="M0 0 C0.66 0.33 1.32 0.66 2 1 C0.4375 2.20442708 -1.125 3.40885417 -2.6875 4.61328125 C-4.34370205 6.04491137 -4.34370205 6.04491137 -4 9 C-7.375 9.625 -7.375 9.625 -11 10 C-11.66 9.34 -12.32 8.68 -13 8 C-12.14535156 7.50628906 -11.29070313 7.01257813 -10.41015625 6.50390625 C-9.30542969 5.86324219 -8.20070313 5.22257812 -7.0625 4.5625 C-5.96035156 3.92441406 -4.85820313 3.28632813 -3.72265625 2.62890625 C-1.1716429 1.25289773 -1.1716429 1.25289773 0 0 Z " fill="#E6E7E2" transform="translate(771,380)"/>
<path d="M0 0 C0.18451025 10.55808656 0.18451025 10.55808656 -1 15 C-1.33 15 -1.66 15 -2 15 C-2.36504603 13.41913952 -2.71660506 11.83516093 -3.0625 10.25 C-3.25972656 9.36828125 -3.45695312 8.4865625 -3.66015625 7.578125 C-4.00186378 4.98586098 -3.9540953 3.42067608 -3 1 C-1 0 -1 0 0 0 Z " fill="#D3D4D1" transform="translate(416,338)"/>
<path d="M0 0 C0.33 0 0.66 0 1 0 C1.20967764 4.9274246 0.60842875 9.06022965 -0.5546875 13.84375 C-1.12187803 16.59014626 -1.143263 19.20637157 -1 22 C-1.99 22.33 -2.98 22.66 -4 23 C-3.20736384 15.23216563 -1.58110513 7.6370361 0 0 Z " fill="#8C8B8A" transform="translate(29,391)"/>
<path d="M0 0 C0.33 0 0.66 0 1 0 C2.18396883 8.02350304 3.28545428 15.86455314 3 24 C2.67 22.68 2.34 21.36 2 20 C1.34 20 0.68 20 0 20 C0 13.4 0 6.8 0 0 Z " fill="#8C8C8F" transform="translate(1004,445)"/>
<path d="M0 0 C0.33 0 0.66 0 1 0 C1 8.58 1 17.16 1 26 C0.34 26 -0.32 26 -1 26 C-2 23 -2 23 -1 20 C-0.8535286 18.44733347 -0.75305926 16.89004338 -0.68359375 15.33203125 C-0.64169922 14.43935547 -0.59980469 13.54667969 -0.55664062 12.62695312 C-0.51732422 11.69818359 -0.47800781 10.76941406 -0.4375 9.8125 C-0.37272461 8.40194336 -0.37272461 8.40194336 -0.30664062 6.96289062 C-0.20061335 4.64207146 -0.09854971 2.32114675 0 0 Z " fill="#52534F" transform="translate(170,323)"/>
<path d="M0 0 C0.66 0 1.32 0 2 0 C0.68 5.94 -0.64 11.88 -2 18 C-2.33 18 -2.66 18 -3 18 C-3.33278764 11.18401613 -3.24201565 6.07877934 0 0 Z " fill="#1B1B19" transform="translate(177,665)"/>
<path d="M0 0 C0.99 0.66 1.98 1.32 3 2 C1.92598892 4.91517292 1.22189824 6.77810176 -1 9 C-1.33 9.99 -1.66 10.98 -2 12 C-2.66 12 -3.32 12 -4 12 C-4.33 12.99 -4.66 13.98 -5 15 C-5.33 14.34 -5.66 13.68 -6 13 C-5.10333658 10.75689987 -4.10853317 8.55245679 -3.0625 6.375 C-2.49660156 5.18648437 -1.93070313 3.99796875 -1.34765625 2.7734375 C-0.90292969 1.85820313 -0.45820313 0.94296875 0 0 Z " fill="#DFDEDF" transform="translate(186,649)"/>
<path d="M0 0 C-3.11910856 1.79275866 -5.67682428 2.34290718 -9.25 2.625 C-10.14203125 2.69976562 -11.0340625 2.77453125 -11.953125 2.8515625 C-12.96632813 2.92503906 -12.96632813 2.92503906 -14 3 C-14.33 2.01 -14.66 1.02 -15 0 C-9.62374766 -0.84888195 -5.34629602 -1.0024305 0 0 Z " fill="#E4E4E4" transform="translate(688,459)"/>
<path d="M0 0 C2.38376103 1.7685969 3.79559296 3.22096617 4.55859375 6.12890625 C5.1401255 10.48680469 5.27649498 13.11760547 3 17 C2.86722656 16.19175781 2.73445312 15.38351562 2.59765625 14.55078125 C2.42105469 13.48214844 2.24445312 12.41351563 2.0625 11.3125 C1.88847656 10.25675781 1.71445312 9.20101563 1.53515625 8.11328125 C1.06832879 5.39750396 0.55577384 2.69875765 0 0 Z " fill="#252825" transform="translate(846,288)"/>
<path d="M0 0 C0.66 0.33 1.32 0.66 2 1 C1.125 8.625 1.125 8.625 0 12 C-0.99 12.33 -1.98 12.66 -3 13 C-2.343621 8.51474352 -1.29925791 4.33085971 0 0 Z " fill="#DFE0DE" transform="translate(409,724)"/>
<path d="M0 0 C0.33 0 0.66 0 1 0 C1.22354607 1.89409978 1.42819951 3.7904348 1.625 5.6875 C1.74101562 6.74324219 1.85703125 7.79898438 1.9765625 8.88671875 C2.0010326 12.13716346 1.40852563 14.10230796 0 17 C-0.33 17 -0.66 17 -1 17 C-0.67 11.39 -0.34 5.78 0 0 Z " fill="#C8C7C5" transform="translate(419,661)"/>
<path d="M0 0 C2.96404505 2.80804268 5.44499019 5.18315774 7 9 C6.01 9.495 6.01 9.495 5 10 C5 9.34 5 8.68 5 8 C4.01 7.67 3.02 7.34 2 7 C2 6.34 2 5.68 2 5 C1.34 5 0.68 5 0 5 C-0.66 3.68 -1.32 2.36 -2 1 C-1.34 0.67 -0.68 0.34 0 0 Z " fill="#E9EAE6" transform="translate(813,231)"/>
<path d="M0 0 C1.65 0 3.3 0 5 0 C4.67 0.99 4.34 1.98 4 3 C-2.93 3 -9.86 3 -17 3 C-17 2.67 -17 2.34 -17 2 C-11.39 2 -5.78 2 0 2 C0 1.34 0 0.68 0 0 Z " fill="#B7B6B5" transform="translate(334,217)"/>
<path d="M0 0 C4.59306496 1.4859916 7.43569245 3.85014682 11 7 C10.01 7.33 9.02 7.66 8 8 C7.34 7.67 6.68 7.34 6 7 C6 6.34 6 5.68 6 5 C5.01 5 4.02 5 3 5 C3 4.34 3 3.68 3 3 C1.35 2.67 -0.3 2.34 -2 2 C-1.34 1.34 -0.68 0.68 0 0 Z " fill="#1B1C1B" transform="translate(355,228)"/>
<path d="M0 0 C0.66 0.99 1.32 1.98 2 3 C-1.3 5.64 -4.6 8.28 -8 11 C-8 8 -8 8 -6.25 5.95703125 C-5.5075 5.24933594 -4.765 4.54164063 -4 3.8125 C-2.88625 2.73935547 -2.88625 2.73935547 -1.75 1.64453125 C-1.1725 1.10183594 -0.595 0.55914062 0 0 Z " fill="#6C6D6B" transform="translate(147,171)"/>
<path d="M0 0 C6.86515862 -0.26404456 13.25846717 0.74158054 20 2 C20 2.33 20 2.66 20 3 C14.39 3 8.78 3 3 3 C3 2.34 3 1.68 3 1 C2.01 0.67 1.02 0.34 0 0 Z " fill="#818181" transform="translate(577,12)"/>
<path d="M0 0 C3 1 3 1 4 3 C4.07033769 4.87379605 4.0843022 6.75001102 4.0625 8.625 C4.05347656 9.62789062 4.04445313 10.63078125 4.03515625 11.6640625 C4.02355469 12.43492187 4.01195312 13.20578125 4 14 C1.90284215 10.85426323 1.47995441 8.98543749 0.875 5.3125 C0.70742188 4.31863281 0.53984375 3.32476563 0.3671875 2.30078125 C0.24601562 1.54152344 0.12484375 0.78226563 0 0 Z " fill="#6B6A6B" transform="translate(31,638)"/>
<path d="M0 0 C-0.99 0.495 -0.99 0.495 -2 1 C-2 1.66 -2 2.32 -2 3 C-7.61 3 -13.22 3 -19 3 C-19 2.67 -19 2.34 -19 2 C-12.6221448 0.82706111 -6.49678438 -0.29530838 0 0 Z " fill="#898A8A" transform="translate(446,12)"/>
<path d="M0 0 C4.77609498 1.64178265 8.79382904 4.26546702 13 7 C12.01 7.66 11.02 8.32 10 9 C9.649375 8.566875 9.29875 8.13375 8.9375 7.6875 C6.21514365 5.31641544 3.35241784 4.3283165 0 3 C0 2.01 0 1.02 0 0 Z " fill="#7C7C78" transform="translate(763,77)"/>
<path d="M0 0 C-0.99 0.33 -1.98 0.66 -3 1 C-3 1.66 -3 2.32 -3 3 C-4.74906659 3.19601608 -6.49931846 3.38147403 -8.25 3.5625 C-9.22453125 3.66691406 -10.1990625 3.77132813 -11.203125 3.87890625 C-13.7631352 3.98974468 -15.58148159 3.77738092 -18 3 C-15.93918639 2.49309416 -13.87626474 1.99475381 -11.8125 1.5 C-10.66394531 1.2215625 -9.51539063 0.943125 -8.33203125 0.65625 C-5.43181171 0.08504615 -2.93903615 -0.13283779 0 0 Z " fill="#828282" transform="translate(417,17)"/>
<path d="M0 0 C-4.455 2.97 -4.455 2.97 -9 6 C-9.33 4.68 -9.66 3.36 -10 2 C-8.71211992 1.46987262 -7.41953322 0.9511671 -6.125 0.4375 C-5.40570312 0.14746094 -4.68640625 -0.14257812 -3.9453125 -0.44140625 C-2 -1 -2 -1 0 0 Z " fill="#676666" transform="translate(796,927)"/>
<path d="M0 0 C0.66 0.33 1.32 0.66 2 1 C1.1875 2.9375 1.1875 2.9375 0 5 C-3 6 -3 6 -5.1875 5.0625 C-5.785625 4.711875 -6.38375 4.36125 -7 4 C-4.61426621 2.10786631 -2.92824652 0.97608217 0 0 Z " fill="#1A1D18" transform="translate(768,435)"/>
<path d="M0 0 C0.66 0.33 1.32 0.66 2 1 C0.9024777 3.99324263 0.32317108 4.84610901 -2.625 6.25 C-3.40875 6.4975 -4.1925 6.745 -5 7 C-5 6.34 -5 5.68 -5 5 C-5.99 4.67 -6.98 4.34 -8 4 C-6.71349294 3.30289269 -5.42059335 2.61757124 -4.125 1.9375 C-3.40570312 1.55464844 -2.68640625 1.17179688 -1.9453125 0.77734375 C-1.30335938 0.52082031 -0.66140625 0.26429688 0 0 Z " fill="#DDDDD9" transform="translate(648,180)"/>
<path d="M0 0 C0.33 0.99 0.66 1.98 1 3 C-2.3 5.97 -5.6 8.94 -9 12 C-9 9 -9 9 -7.03125 6.73828125 C-5.77828125 5.53751953 -5.77828125 5.53751953 -4.5 4.3125 C-3.6646875 3.50425781 -2.829375 2.69601563 -1.96875 1.86328125 C-1.3190625 1.24839844 -0.669375 0.63351563 0 0 Z " fill="#858682" transform="translate(162,155)"/>
<path d="M0 0 C1.46015291 0.28241641 2.91809793 0.57626614 4.375 0.875 C5.18710937 1.03742187 5.99921875 1.19984375 6.8359375 1.3671875 C9 2 9 2 11 4 C4.25 5.125 4.25 5.125 2 4 C2 3.01 2 2.02 2 1 C1.34 0.67 0.68 0.34 0 0 Z " fill="#60605F" transform="translate(676,36)"/>
<path d="M0 0 C3.96 0 7.92 0 12 0 C12 0.99 12 1.98 12 3 C10.18674449 2.88648483 8.37436643 2.75887039 6.5625 2.625 C5.04849609 2.52058594 5.04849609 2.52058594 3.50390625 2.4140625 C2.67761719 2.27742187 1.85132813 2.14078125 1 2 C0.67 1.34 0.34 0.68 0 0 Z " fill="#DAE0DE" transform="translate(695,805)"/>
<path d="M0 0 C0.99 0.495 0.99 0.495 2 1 C2.4140625 3.50390625 2.4140625 3.50390625 2.625 6.5625 C2.69976563 7.57441406 2.77453125 8.58632813 2.8515625 9.62890625 C2.92503906 10.80259766 2.92503906 10.80259766 3 12 C2.01 12 1.02 12 0 12 C0 8.04 0 4.08 0 0 Z " fill="#181815" transform="translate(559,657)"/>
<path d="M0 0 C1.49341969 2.98683937 0.40648676 4.95160978 -0.4375 8.125 C-0.72496094 9.22070312 -1.01242187 10.31640625 -1.30859375 11.4453125 C-1.53675781 12.28835938 -1.76492188 13.13140625 -2 14 C-2.33 14 -2.66 14 -3 14 C-3.33 11.36 -3.66 8.72 -4 6 C-3.01 5.67 -2.02 5.34 -1 5 C-1.33 3.68 -1.66 2.36 -2 1 C-1.34 0.67 -0.68 0.34 0 0 Z " fill="#6A6A69" transform="translate(993,635)"/>
<path d="M0 0 C-0.66 0.66 -1.32 1.32 -2 2 C-5.0390625 1.9765625 -5.0390625 1.9765625 -8.625 1.625 C-9.81351562 1.51414062 -11.00203125 1.40328125 -12.2265625 1.2890625 C-13.14179688 1.19367187 -14.05703125 1.09828125 -15 1 C-15 0.67 -15 0.34 -15 0 C-13.25093341 -0.19601608 -11.50068154 -0.38147403 -9.75 -0.5625 C-8.77546875 -0.66691406 -7.8009375 -0.77132812 -6.796875 -0.87890625 C-4.2368648 -0.98974468 -2.41851841 -0.77738092 0 0 Z " fill="#D5D5D2" transform="translate(394,558)"/>
<path d="M0 0 C0.33 0.99 0.66 1.98 1 3 C-2.1254959 5.64465038 -5.08788267 6.84414715 -9 8 C-6.14723863 5.06799526 -3.34920216 2.35684596 0 0 Z " fill="#DFDFDD" transform="translate(237,207)"/>
<path d="M0 0 C-0.33 0.66 -0.66 1.32 -1 2 C-1.99 2.33 -2.98 2.66 -4 3 C-4.66 3.66 -5.32 4.32 -6 5 C-6.99 5 -7.98 5 -9 5 C-9.33 4.01 -9.66 3.02 -10 2 C-8.71211992 1.46987262 -7.41953322 0.9511671 -6.125 0.4375 C-5.40570313 0.14746094 -4.68640625 -0.14257812 -3.9453125 -0.44140625 C-2 -1 -2 -1 0 0 Z " fill="#E3E3E1" transform="translate(287,181)"/>
<path d="M0 0 C0 0.66 0 1.32 0 2 C-0.99 2 -1.98 2 -3 2 C-3 2.66 -3 3.32 -3 4 C-4.28650706 4.69710731 -5.57940665 5.38242876 -6.875 6.0625 C-7.95394531 6.63677734 -7.95394531 6.63677734 -9.0546875 7.22265625 C-9.69664062 7.47917969 -10.33859375 7.73570313 -11 8 C-11.66 7.67 -12.32 7.34 -13 7 C-11.21190303 5.82786955 -9.41940875 4.66244474 -7.625 3.5 C-6.62726563 2.8503125 -5.62953125 2.200625 -4.6015625 1.53125 C-2 0 -2 0 0 0 Z " fill="#767A74" transform="translate(262,77)"/>
<path d="M0 0 C1.64936913 0.78427352 3.29441127 1.57765259 4.9375 2.375 C5.85402344 2.81585938 6.77054688 3.25671875 7.71484375 3.7109375 C10 5 10 5 11 7 C8.03 6.505 8.03 6.505 5 6 C5 5.34 5 4.68 5 4 C4.01 4 3.02 4 2 4 C2 3.34 2 2.68 2 2 C1.34 2 0.68 2 0 2 C0 1.34 0 0.68 0 0 Z " fill="#6E6D67" transform="translate(751,70)"/>
<path d="M0 0 C0 1.32 0 2.64 0 4 C-2.97 3.01 -5.94 2.02 -9 1 C-9 0.67 -9 0.34 -9 0 C-5.62182575 -0.84454356 -3.32534757 -1.10844919 0 0 Z " fill="#5A5A5A" transform="translate(318,973)"/>
<path d="M0 0 C3.11954738 0.33724836 4.6209965 0.6209965 6.875 2.875 C7.24625 3.57625 7.6175 4.2775 8 5 C7.67 5.99 7.34 6.98 7 8 C5.83035398 6.8572081 4.66435444 5.71068285 3.5 4.5625 C2.8503125 3.92441406 2.200625 3.28632812 1.53125 2.62890625 C0 1 0 1 0 0 Z " fill="#5D5E5F" transform="translate(163,870)"/>
<path d="M0 0 C0 0.99 0 1.98 0 3 C-2.64 3.33 -5.28 3.66 -8 4 C-8.33 3.34 -8.66 2.68 -9 2 C-5.5647952 -0.29013653 -4.014669 -0.17842973 0 0 Z " fill="#F0EFEF" transform="translate(725,846)"/>
<path d="M0 0 C2 3 2 3 1.875 5.4375 C1 8 1 8 -3 12 C-2.01 8.04 -1.02 4.08 0 0 Z " fill="#212223" transform="translate(454,735)"/>
<path d="M0 0 C0.33 0 0.66 0 1 0 C1 3.3 1 6.6 1 10 C-0.65 10.33 -2.3 10.66 -4 11 C-4 9.68 -4 8.36 -4 7 C-3.01 6.67 -2.02 6.34 -1 6 C-0.67 4.02 -0.34 2.04 0 0 Z " fill="#EFEEEB" transform="translate(567,322)"/>
<path d="M0 0 C2.90092502 2.90092502 3.55461795 3.96517325 4.6875 7.6875 C4.93886719 8.49574219 5.19023438 9.30398438 5.44921875 10.13671875 C5.63097656 10.75160156 5.81273437 11.36648438 6 12 C4.68 11.67 3.36 11.34 2 11 C1.34 7.37 0.68 3.74 0 0 Z " fill="#7C7C7C" transform="translate(957,290)"/>
<path d="M0 0 C5.22321429 4.82142857 5.22321429 4.82142857 6 9 C4.68388323 8.04663979 3.37221039 7.08714226 2.0625 6.125 C1.33160156 5.59132812 0.60070312 5.05765625 -0.15234375 4.5078125 C-2 3 -2 3 -3 1 C-2.01 0.67 -1.02 0.34 0 0 Z " fill="#E4E5E1" transform="translate(766,245)"/>
<path d="M0 0 C0 3.33156142 -0.45664761 5.06028115 -2 8 C-4.625 9.8125 -4.625 9.8125 -7 11 C-5.22054913 6.95579349 -2.60470327 3.53921513 0 0 Z " fill="#797978" transform="translate(117,207)"/>
<path d="M0 0 C0.66 0.33 1.32 0.66 2 1 C0.1875 3 0.1875 3 -2 5 C-2.99 5 -3.98 5 -5 5 C-5.33 5.99 -5.66 6.98 -6 8 C-6.99 7.67 -7.98 7.34 -9 7 C-6.03 4.69 -3.06 2.38 0 0 Z " fill="#181A17" transform="translate(660,226)"/>
<path d="M0 0 C2.3125 -0.3125 2.3125 -0.3125 5 0 C6.8125 2.5 6.8125 2.5 8 5 C5 5 5 5 2.3125 2.5 C1.549375 1.675 0.78625 0.85 0 0 Z " fill="#6C6D6D" transform="translate(222,921)"/>
<path d="M0 0 C0.66 0 1.32 0 2 0 C4 2 4 2 4.1953125 4.1640625 C4.17210937 4.97617187 4.14890625 5.78828125 4.125 6.625 C4.10695313 7.44226563 4.08890625 8.25953125 4.0703125 9.1015625 C4.03550781 10.04128906 4.03550781 10.04128906 4 11 C1.6870518 8.6870518 1.50419025 7.52095125 0.875 4.375 C0.70742188 3.55773437 0.53984375 2.74046875 0.3671875 1.8984375 C0.24601562 1.27195312 0.12484375 0.64546875 0 0 Z " fill="#737576" transform="translate(41,672)"/>
<path d="M0 0 C3.875 1.75 3.875 1.75 5 4 C5.99 4.66 6.98 5.32 8 6 C7.34 6 6.68 6 6 6 C5.67 6.66 5.34 7.32 5 8 C3.02 5.69 1.04 3.38 -1 1 C-0.67 0.67 -0.34 0.34 0 0 Z " fill="#181917" transform="translate(793,208)"/>
<path d="M0 0 C-4.95 1.485 -4.95 1.485 -10 3 C-9.67 1.68 -9.34 0.36 -9 -1 C-4.80410573 -2.16552619 -4.17908064 -2.08954032 0 0 Z " fill="#161614" transform="translate(665,175)"/>
<path d="M0 0 C2.97 0.495 2.97 0.495 6 1 C6.33 2.65 6.66 4.3 7 6 C1.125 2.25 1.125 2.25 0 0 Z " fill="#555556" transform="translate(199,903)"/>
<path d="M0 0 C0.99 0.33 1.98 0.66 3 1 C2.67 4.3 2.34 7.6 2 11 C-0.67927341 6.98108988 -0.15601248 4.75838077 0 0 Z " fill="#E3E2E2" transform="translate(851,703)"/>
<path d="M0 0 C-2.96687001 1.64826111 -5.65626525 2.44271087 -9 3 C-9.33 2.01 -9.66 1.02 -10 0 C-6.7169902 -1.6415049 -3.57454967 -0.51888624 0 0 Z " fill="#DADAD7" transform="translate(677,219)"/>
<path d="M0 0 C-0.33 1.32 -0.66 2.64 -1 4 C-5.455 4.495 -5.455 4.495 -10 5 C-7.30495181 2.30495181 -3.91639523 0 0 0 Z " fill="#696967" transform="translate(304,54)"/>
<path d="M0 0 C2.31 0 4.62 0 7 0 C7 1.65 7 3.3 7 5 C4.11562221 3.70700306 2.12780579 2.34058637 0 0 Z " fill="#E1E3DD" transform="translate(634,828)"/>
<path d="M0 0 C0.66 0.33 1.32 0.66 2 1 C2 2.65 2 4.3 2 6 C0.35 6 -1.3 6 -3 6 C-2 4 -1 2 0 0 Z " fill="#E6E7E7" transform="translate(386,777)"/>
<path d="M0 0 C1.32 0 2.64 0 4 0 C4.625 2.3125 4.625 2.3125 5 5 C4.01 6.485 4.01 6.485 3 8 C0 2.25 0 2.25 0 0 Z " fill="#E2E4E2" transform="translate(183,748)"/>
<path d="M0 0 C0.33 0 0.66 0 1 0 C1.33 2.31 1.66 4.62 2 7 C1.34 7 0.68 7 0 7 C0.33 7.99 0.66 8.98 1 10 C0.34 10 -0.32 10 -1 10 C-1.33 10.66 -1.66 11.32 -2 12 C-1 3.42857143 -1 3.42857143 0 0 Z " fill="#7D7D7A" transform="translate(38,359)"/>
<path d="M0 0 C1.0326802 2.78823655 1.04509293 3.8677274 0.0625 6.75 C-0.288125 7.4925 -0.63875 8.235 -1 9 C-1.99 9 -2.98 9 -4 9 C-2.94124926 5.59687262 -1.99097846 2.98646769 0 0 Z " fill="#696A69" transform="translate(85,255)"/>
<path d="M0 0 C2.375 0.3125 2.375 0.3125 5 1 C5.66 1.99 6.32 2.98 7 4 C6.67 4.99 6.34 5.98 6 7 C4.02 4.69 2.04 2.38 0 0 Z " fill="#E3E4E0" transform="translate(365,234)"/>
<path d="M0 0 C0.66 0.33 1.32 0.66 2 1 C-1.32307692 5.8 -1.32307692 5.8 -4.75 6.8125 C-5.4925 6.874375 -6.235 6.93625 -7 7 C-4.66666667 4.66666667 -2.33333333 2.33333333 0 0 Z " fill="#73736F" transform="translate(225,100)"/>
<path d="M0 0 C0.66 0.33 1.32 0.66 2 1 C-0.25 3.5625 -0.25 3.5625 -3 6 C-4.32 5.67 -5.64 5.34 -7 5 C-4.69 3.35 -2.38 1.7 0 0 Z " fill="#6C6D6A" transform="translate(247,85)"/>
<path d="M0 0 C0.99 0.66 1.98 1.32 3 2 C-1.75 6 -1.75 6 -4 6 C-3.6875 4.125 -3.6875 4.125 -3 2 C-2.01 1.34 -1.02 0.68 0 0 Z " fill="#54524F" transform="translate(801,919)"/>
<path d="M0 0 C0.99 0.33 1.98 0.66 3 1 C3 2.32 3 3.64 3 5 C3.66 5.33 4.32 5.66 5 6 C4.34 6.66 3.68 7.32 3 8 C1.02 4.535 1.02 4.535 -1 1 C-0.67 0.67 -0.34 0.34 0 0 Z " fill="#E0E2DF" transform="translate(598,783)"/>
<path d="M0 0 C0.66 0 1.32 0 2 0 C2 0.66 2 1.32 2 2 C3.32 2.33 4.64 2.66 6 3 C5.67 4.65 5.34 6.3 5 8 C2.27573689 5.64722731 1.1858237 3.37503669 0 0 Z " fill="#747577" transform="translate(90,777)"/>
<path d="M0 0 C1.98 0.495 1.98 0.495 4 1 C2.515 4.465 2.515 4.465 1 8 C0.34 7.34 -0.32 6.68 -1 6 C-0.625 2.875 -0.625 2.875 0 0 Z " fill="#DADCD7" transform="translate(438,772)"/>
<path d="M0 0 C1.65 0 3.3 0 5 0 C4.34 1.98 3.68 3.96 3 6 C2.01 5.34 1.02 4.68 0 4 C0 2.68 0 1.36 0 0 Z " fill="#F3F4F3" transform="translate(837,748)"/>
<path d="M0 0 C1.45792884 -0.05399736 2.91642712 -0.09279177 4.375 -0.125 C5.18710937 -0.14820313 5.99921875 -0.17140625 6.8359375 -0.1953125 C9 0 9 0 11 2 C6.99799622 3.60080151 3.95443764 2.29279692 0 1 C0 0.67 0 0.34 0 0 Z " fill="#D3D4CF" transform="translate(275,449)"/>
<path d="M0 0 C0.99 0.99 1.98 1.98 3 3 C-0.96 4.98 -0.96 4.98 -5 7 C-5 5 -5 5 -2.5 2.375 C-1.675 1.59125 -0.85 0.8075 0 0 Z " fill="#E4E6E0" transform="translate(782,424)"/>
<path d="M0 0 C0.66 0.33 1.32 0.66 2 1 C2 2.98 2 4.96 2 7 C0.68 7.33 -0.64 7.66 -2 8 C-1.34 5.36 -0.68 2.72 0 0 Z " fill="#1E201E" transform="translate(223,299)"/>
<path d="M0 0 C0.99 0 1.98 0 3 0 C3 1.32 3 2.64 3 4 C2.34 4 1.68 4 1 4 C1 4.66 1 5.32 1 6 C0.01 6.33 -0.98 6.66 -2 7 C-1.34 4.69 -0.68 2.38 0 0 Z " fill="#E0E0DB" transform="translate(584,251)"/>
<path d="M0 0 C-2.68841859 2.25245881 -4.64641875 3.88213958 -8 5 C-7.75 3.125 -7.75 3.125 -7 1 C-4.09342573 -1.03460199 -3.47133392 -1.15711131 0 0 Z " fill="#E6E7E4" transform="translate(280,233)"/>
<path d="M0 0 C0 3 0 3 -1.3125 4.5625 C-3 6 -3 6 -6 8 C-6.66 7.34 -7.32 6.68 -8 6 C-5.36 4.02 -2.72 2.04 0 0 Z " fill="#D8D7D8" transform="translate(247,199)"/>
<path d="M0 0 C0 0.99 0 1.98 0 3 C-1.65 3.33 -3.3 3.66 -5 4 C-5.66 3.01 -6.32 2.02 -7 1 C-3.375 -1.125 -3.375 -1.125 0 0 Z " fill="#E2E1E0" transform="translate(277,185)"/>
<path d="M0 0 C0.33 0.66 0.66 1.32 1 2 C-0.98 4.31 -2.96 6.62 -5 9 C-5.33 7.68 -5.66 6.36 -6 5 C-4.02 3.35 -2.04 1.7 0 0 Z " fill="#555554" transform="translate(194,125)"/>
<path d="M0 0 C2.97 0.495 2.97 0.495 6 1 C3.4345406 3.5654594 1.52313332 3.54046087 -2 4 C-1.34 2.68 -0.68 1.36 0 0 Z " fill="#6D6D6C" transform="translate(684,983)"/>
<path d="M0 0 C1.32 0.33 2.64 0.66 4 1 C1.69 2.65 -0.62 4.3 -3 6 C-2 2 -2 2 0 0 Z " fill="#5B5B5D" transform="translate(844,883)"/>
<path d="M0 0 C0.66 0.66 1.32 1.32 2 2 C1.01 3.98 0.02 5.96 -1 8 C-1.99 7.67 -2.98 7.34 -4 7 C-2.68 4.69 -1.36 2.38 0 0 Z " fill="#1D1D1B" transform="translate(836,760)"/>
<path d="M0 0 C2.31 0.66 4.62 1.32 7 2 C6.67 2.99 6.34 3.98 6 5 C4.68 4.67 3.36 4.34 2 4 C2 3.34 2 2.68 2 2 C1.01 1.67 0.02 1.34 -1 1 C-0.67 0.67 -0.34 0.34 0 0 Z " fill="#EAECE7" transform="translate(766,581)"/>
<path d="M0 0 C3.61855575 0.62388892 4.1709277 1.1709277 7 4 C3.7 3.67 0.4 3.34 -3 3 C-2.01 2.67 -1.02 2.34 0 2 C0 1.34 0 0.68 0 0 Z " fill="#292928" transform="translate(686,558)"/>
<path d="M0 0 C2.31 0.33 4.62 0.66 7 1 C7 1.66 7 2.32 7 3 C4.69 3 2.38 3 0 3 C0 2.01 0 1.02 0 0 Z " fill="#2F302E" transform="translate(305,457)"/>
<path d="M0 0 C0.66 0 1.32 0 2 0 C1.1875 3.4375 1.1875 3.4375 0 7 C-0.99 7.33 -1.98 7.66 -3 8 C-1.125 1.125 -1.125 1.125 0 0 Z " fill="#1D1E1C" transform="translate(629,264)"/>
<path d="M0 0 C1.65 0 3.3 0 5 0 C5 0.99 5 1.98 5 3 C5.66 3.66 6.32 4.32 7 5 C6.34 5.66 5.68 6.32 5 7 C3.35 4.69 1.7 2.38 0 0 Z " fill="#EDEFE9" transform="translate(776,258)"/>
<path d="M0 0 C1.65 1.65 3.3 3.3 5 5 C3.1875 5.6875 3.1875 5.6875 1 6 C-0.75 4.5625 -0.75 4.5625 -2 3 C-1.34 2.67 -0.68 2.34 0 2 C0 1.34 0 0.68 0 0 Z " fill="#565756" transform="translate(888,184)"/>
<path d="M0 0 C0.66 0.33 1.32 0.66 2 1 C-0.0072908 4.0109362 -0.83884224 4.63016497 -4 6 C-4.66 5.34 -5.32 4.68 -6 4 C-4.02 2.68 -2.04 1.36 0 0 Z " fill="#76776E" transform="translate(268,72)"/>
<path d="M0 0 C1.32 0 2.64 0 4 0 C4.33 0.99 4.66 1.98 5 3 C4.01 4.485 4.01 4.485 3 6 C0 2.25 0 2.25 0 0 Z " fill="#E9ECE7" transform="translate(607,798)"/>
<path d="M0 0 C0.66 0.33 1.32 0.66 2 1 C1.67 2.32 1.34 3.64 1 5 C0.34 5 -0.32 5 -1 5 C-1 5.66 -1 6.32 -1 7 C-1.66 7 -2.32 7 -3 7 C-1.125 1.125 -1.125 1.125 0 0 Z " fill="#21231F" transform="translate(227,672)"/>
<path d="M0 0 C0.66 0.33 1.32 0.66 2 1 C2 1.66 2 2.32 2 3 C1.01 3 0.02 3 -1 3 C-1.33 3.66 -1.66 4.32 -2 5 C-3.32 4.67 -4.64 4.34 -6 4 C-4.03617993 2.49440461 -2.21736634 1.10868317 0 0 Z " fill="#151714" transform="translate(268,635)"/>
<path d="M0 0 C0 0.66 0 1.32 0 2 C-1.8125 3.6875 -1.8125 3.6875 -4 5 C-4.99 4.67 -5.98 4.34 -7 4 C-3.375 0 -3.375 0 0 0 Z " fill="#E4E6E2" transform="translate(255,591)"/>
<path d="M0 0 C-1 2 -1 2 -2.8125 2.8125 C-5 3 -5 3 -7.25 1.5625 C-7.8275 1.046875 -8.405 0.53125 -9 0 C-5.62182575 -0.84454356 -3.32534757 -1.10844919 0 0 Z " fill="#D8D8D6" transform="translate(344,565)"/>
<path d="M0 0 C0.99 0.33 1.98 0.66 3 1 C3.33 2.98 3.66 4.96 4 7 C3.01 7.495 3.01 7.495 2 8 C1.34 5.36 0.68 2.72 0 0 Z " fill="#EBEBE8" transform="translate(399,289)"/>
<path d="M0 0 C0.66 0.33 1.32 0.66 2 1 C1.67 3.31 1.34 5.62 1 8 C0.01 8 -0.98 8 -2 8 C-1.34 5.36 -0.68 2.72 0 0 Z " fill="#E7E7E4" transform="translate(179,284)"/>
<path d="M0 0 C0.66 0.33 1.32 0.66 2 1 C1.125 5.75 1.125 5.75 0 8 C-0.66 8 -1.32 8 -2 8 C-1.34 5.36 -0.68 2.72 0 0 Z " fill="#DCDDD8" transform="translate(579,264)"/>
<path d="M0 0 C0.33 0.66 0.66 1.32 1 2 C1.99 2.33 2.98 2.66 4 3 C3.01 4.32 2.02 5.64 1 7 C0.01 5.02 -0.98 3.04 -2 1 C-1.34 0.67 -0.68 0.34 0 0 Z " fill="#E0E1DE" transform="translate(382,251)"/>
<path d="M0 0 C0.66 0.33 1.32 0.66 2 1 C1.34 2.65 0.68 4.3 0 6 C-1.32 5.67 -2.64 5.34 -4 5 C-2.68 3.35 -1.36 1.7 0 0 Z " fill="#DADAD9" transform="translate(606,213)"/>
<path d="M0 0 C0 0.99 0 1.98 0 3 C-3.3 2.67 -6.6 2.34 -10 2 C-10 1.67 -10 1.34 -10 1 C-6.56484998 0.37542727 -3.50935186 0 0 0 Z " fill="#343532" transform="translate(722,171)"/>
<path d="M0 0 C-0.33 0.99 -0.66 1.98 -1 3 C-3.64 3 -6.28 3 -9 3 C-6.01800145 0.01800145 -4.21244839 0 0 0 Z " fill="#727272" transform="translate(346,37)"/>
<path d="M0 0 C6.625 0.75 6.625 0.75 10 3 C7.03 3 4.06 3 1 3 C0.67 2.01 0.34 1.02 0 0 Z " fill="#80807F" transform="translate(649,27)"/>
</svg>
